<?xml version="1.0" encoding="utf-8"?>
<!DOCTYPE svg PUBLIC "-//W3C//DTD SVG 20010904//EN" "http://www.w3.org/TR/2001/REC-SVG-20010904/DTD/svg10.dtd">
<svg version="1.0" width="24pt" height="33.75pt" viewBox="0 0 24 33.75" preserveAspectRatio="xMidYMid meet" xmlns="http://www.w3.org/2000/svg">
  <g transform="translate(0,33.75)scale(.075,.075)">
    <path id="path1" d="M 157 -433 c -13 13 -7 33 11 33 14 0 15 -2 2 -10 -8 -5 -10 -10 -4 -10 6 0 17 7 24 15 10 13 15 13 21 3 15 -24 -33 -52 -54 -31 z M 167 -369 c -10 6 -31 24 -46 40 -26 27 -60 41 -46 19 3 -5 0 -7 -9 -4 -24 9 3 31 31 26 26 -5 29 11 13 68 -6 19 -11 52 -12 73 0 36 -2 38 -30 33 -27 -4 -29 -3 -26 27 2 23 9 33 28 38 24 7 25 7 2 8 -13 1 -21 4 -19 9 6 9 53 8 89 -2 24 -7 28 -13 28 -46 0 -34 2 -37 24 -33 24 5 36 27 36 71 0 21 10 29 22 16 3 -3 2 -22 -3 -42 -7 -30 -5 -39 8 -50 22 -16 33 -15 33 4 0 8 4 12 10 9 16 -10 12 -53 -9 -93 -11 -21 -27 -63 -36 -95 -9 -33 -25 -63 -38 -72 -25 -18 -26 -18 -50 -4 z m 83 151 c 0 16 -3 19 -11 11 -6 -6 -8 -16 -5 -22 11 -17 16 -13 16 11 z m -53 40 c -3 8 -6 5 -6 -6 -1 -11 2 -17 5 -13 3 3 4 12 1 19 z m 38 18 c -3 6 -12 10 -18 10 -7 0 -6 -4 3 -10 19 -12 23 -12 15 0 z m -95 66 c 0 21 -6 37 -15 40 -8 4 -12 11 -8 17 3 6 1 7 -6 3 -6 -4 -9 -12 -5 -17 3 -6 8 -27 9 -47 2 -20 4 -38 4 -40 1 -2 5 0 11 3 6 3 10 22 10 41 z m -47 11 c -7 2 -21 2 -30 0 -10 -3 -4 -5 12 -5 17 0 24 2 18 5 z M 72 -205 c -11 12 -10 15 3 15 8 0 15 -7 15 -15 0 -18 -2 -18 -18 0 z M 58 -138 c 5 5 16 8 23 6 8 -3 3 -7 -10 -11 -17 -4 -21 -3 -13 5 z " />
  </g>
</svg>